PathFileType	4	(X/Y/Z)	/Users/itak/Documents/Research/Walk-IL/dataset/trc/00571_00009.trc
DataRate	CameraRate	NumFrames	NumMarkers	Units	OrigDataRate	OrigDataStartFrame	OrigNumFrames
100.000000	100.000000	4	54	mm	100.000000	250	500
Frame#	Time	RPSI			LPSI			L3			STRN			T10			C7			CLAV			RBAK			LBAK			LSHO			LUPA			LAEL			LAOL			LWTS			LWPS			LFRA			LHPS			LHTS			RSHO			RUPA			RAEL			RAOL			RWPS			RFRA			RHTS			RHPS			RBHD			LFHD			RFHD			LBHD			LHIP			RHIP			RASI			LASI			LKNE			LTHI			LANK			LTIP			LTOE			LMT1			LMT5			LHEE			RKNE			RTHI			RANK			RTIP			RTOE			RMT1			RMT5			RHEE			RWTS			RIFD			LIFD			*53			
		X1	Y1	Z1	X2	Y2	Z2	X3	Y3	Z3	X4	Y4	Z4	X5	Y5	Z5	X6	Y6	Z6	X7	Y7	Z7	X8	Y8	Z8	X9	Y9	Z9	X10	Y10	Z10	X11	Y11	Z11	X12	Y12	Z12	X13	Y13	Z13	X14	Y14	Z14	X15	Y15	Z15	X16	Y16	Z16	X17	Y17	Z17	X18	Y18	Z18	X19	Y19	Z19	X20	Y20	Z20	X21	Y21	Z21	X22	Y22	Z22	X23	Y23	Z23	X24	Y24	Z24	X25	Y25	Z25	X26	Y26	Z26	X27	Y27	Z27	X28	Y28	Z28	X29	Y29	Z29	X30	Y30	Z30	X31	Y31	Z31	X32	Y32	Z32	X33	Y33	Z33	X34	Y34	Z34	X35	Y35	Z35	X36	Y36	Z36	X37	Y37	Z37	X38	Y38	Z38	X39	Y39	Z39	X40	Y40	Z40	X41	Y41	Z41	X42	Y42	Z42	X43	Y43	Z43	X44	Y44	Z44	X45	Y45	Z45	X46	Y46	Z46	X47	Y47	Z47	X48	Y48	Z48	X49	Y49	Z49	X50	Y50	Z50	X51	Y51	Z51	X52	Y52	Z52	X53	Y53	Z53	X54	Y54	Z54	

251	2.5	-201.3253479003906	982.544677734375	-25.59744834899902	-100.8983154296875	995.5867309570312	-110.8392105102539	-145.9924163818359	1090.173217773438	-67.91936492919922	19.79991722106934	1272.78955078125	112.9023895263672	-147.2414245605469	1216.299194335938	-71.47657012939453	-115.2569198608398	1488.886352539062	-15.57210922241211	8.208365440368652	1384.29296875	104.2513427734375	-227.8324737548828	1364.907836914062	-15.43118858337402	-71.10028839111328	1439.662353515625	-104.2552185058594	56.04676055908203	1463.302978515625	-85.84488677978516	122.2431182861328	1345.197509765625	-145.1705017089844	202.7632751464844	1138.949462890625	-135.3706817626953	113.7060546875	1103.986572265625	-169.2799530029297	283.8321533203125	929.64794921875	1.056984305381775	318.3781433105469	903.4814453125	-75.16984558105469	243.6638031005859	1063.8271484375	-110.9543991088867	334.1101379394531	848.2515258789062	-54.85736465454102	330.1741943359375	862.9452514648438	11.61915588378906	-192.11376953125	1448.308837890625	130.6972351074219	-254.7642669677734	1382.695068359375	160.041015625	-293.7572021484375	1093.531860351562	176.9705352783203	-307.9416809082031	1076.380615234375	116.8932647705078	-246.4156799316406	856.5188598632812	266.1440124511719	-291.7461853027344	1038.173217773438	189.6452026367188	-157.0439147949219	791.9474487304688	294.2469482421875	-229.2601013183594	783.6817016601562	280.1450805664062	-104.2487335205078	1665.50634765625	96.62127685546875	99.10147094726562	1675.003295898438	138.5088500976562	-25.22870445251465	1669.380249023438	212.2345275878906	41.73261642456055	1669.345825195312	18.11622047424316	83.60906219482422	927.8015747070312	-109.6982040405273	-202.5042266845703	914.1478271484375	148.4062194824219	-103.2284164428711	951.8147583007812	173.0122680664062	98.72412109375	949.4024658203125	-13.20664691925049	22.04937171936035	485.6466064453125	-95.48630523681641	62.42570495605469	649.5233764648438	-96.83903503417969	-103.6008987426758	33.88407897949219	-215.1009521484375	-52.75669860839844	253.2138519287109	-178.8637084960938	15.79718208312988	38.48377227783203	-30.44038963317871	-61.38405609130859	42.76028823852539	-53.25567245483398	-0.9209395051002502	32.99843215942383	-146.6948089599609	-191.0075073242188	41.96706771850586	-219.7232208251953	-57.5540771484375	507.484130859375	258.0259399414062	-159.5708923339844	777.7376708984375	206.7423553466797	45.17331314086914	37.78531265258789	278.7884216308594	-14.46054649353027	372.9712829589844	281.533203125	146.9857635498047	113.0214233398438	456.2505493164062	166.9198608398438	91.70249938964844	386.0624084472656	67.01907348632812	74.27049255371094	401.4913330078125	78.00314331054688	22.0413932800293	211.9971771240234	-168.3197937011719	881.9386596679688	260.6846008300781	-153.0515594482422	709.9566040039062	271.8482055664062	326.8691101074219	766.6953735351562	19.76936912536621	nan	nan	nan	
252	2.51	-195.8664245605469	980.7660522460938	-20.48486328125	-94.96206665039062	994.3262939453125	-104.9974517822266	-140.2368774414062	1088.5380859375	-62.18356323242188	24.20383453369141	1271.248779296875	119.5709381103516	-141.986328125	1214.781860351562	-66.08258056640625	-110.2712936401367	1487.4638671875	-9.742541313171387	12.56716918945312	1382.781860351562	110.8934936523438	-222.6754150390625	1363.17529296875	-10.20526790618896	-65.64237976074219	1438.220458984375	-98.11287689208984	61.41656875610352	1461.920043945312	-78.88357543945312	128.1779174804688	1343.882446289062	-137.7059326171875	209.4310150146484	1138.01953125	-126.9247894287109	120.6954574584961	1102.464721679688	-161.1656646728516	290.7779846191406	930.2914428710938	11.57937717437744	325.8963317871094	903.6272583007812	-64.28285217285156	250.5151977539062	1063.339965820312	-101.7820358276367	341.8707275390625	848.7093505859375	-43.32750701904297	337.57861328125	864.0628051757812	22.93033981323242	-187.9634552001953	1446.55126953125	136.1961975097656	-250.7541351318359	1380.801147460938	165.1134643554688	-289.5379943847656	1091.553344726562	181.57470703125	-303.2312622070312	1074.610961914062	121.2793579101562	-244.1272277832031	853.8746337890625	269.940673828125	-287.8189392089844	1036.1474609375	194.0152282714844	-155.4170074462891	788.38427734375	298.06982421875	-227.5930786132812	780.77490234375	283.548583984375	-99.998779296875	1663.995849609375	102.752197265625	103.0844802856445	1673.507934570312	145.793701171875	-21.65570831298828	1667.796630859375	218.8182525634766	46.43415832519531	1667.902465820312	25.10132217407227	89.38645935058594	926.6343994140625	-103.2496795654297	-197.3759765625	912.0831298828125	153.5096588134766	-98.74196624755859	949.837646484375	178.8321990966797	103.8211898803711	947.6868286132812	-6.819712162017822	24.4882984161377	485.0410766601562	-92.56211853027344	66.06939697265625	648.572509765625	-92.57012939453125	-103.8606872558594	34.37430572509766	-214.7196197509766	-51.71915435791016	253.6232299804688	-177.5292053222656	15.94630527496338	38.42678451538086	-30.45363807678223	-61.30107879638672	42.78192138671875	-53.17218017578125	-1.094739198684692	32.98428344726562	-146.5596466064453	-191.12548828125	43.06627655029297	-219.3814849853516	-52.747314453125	505.2041320800781	261.5344848632812	-155.6491851806641	775.0226440429688	211.165283203125	56.99178695678711	38.31925201416016	295.841552734375	-8.517214775085449	372.5142517089844	288.2921447753906	153.75341796875	119.2259902954102	473.7206115722656	175.5373687744141	96.92833709716797	404.3684387207031	75.68541717529297	77.74843597412109	418.114990234375	91.36149597167969	21.7660961151123	230.0036773681641	-165.7426452636719	878.6929931640625	265.0526428222656	-151.9562072753906	706.5421752929688	275.1727294921875	334.8927612304688	767.8851928710938	32.01604080200195	nan	nan	nan	
253	2.52	-190.4210052490234	978.9786376953125	-15.13025760650635	-89.10612487792969	993.0564575195312	-99.00056457519531	-134.5574951171875	1086.878051757812	-56.2867546081543	28.58820724487305	1269.688842773438	126.3477935791016	-136.7471771240234	1213.2216796875	-60.44372940063477	-105.348503112793	1486.033447265625	-3.780121088027954	16.86135292053223	1381.252685546875	117.6628112792969	-217.5616302490234	1361.404541015625	-4.809798717498779	-60.24247360229492	1436.749145507812	-91.84078216552734	66.70088195800781	1460.503173828125	-71.80706787109375	133.9647369384766	1342.5068359375	-130.1316528320312	215.8476104736328	1136.984619140625	-118.4267959594727	127.4201354980469	1100.896728515625	-152.9853515625	297.3449096679688	930.7506713867188	22.06482696533203	333.0128479003906	903.6027221679688	-53.43624496459961	257.0719299316406	1062.7177734375	-92.58341979980469	349.1884460449219	848.992431640625	-31.84546279907227	344.5473022460938	864.989990234375	34.197998046875	-183.8648986816406	1444.755126953125	141.8468780517578	-246.7717437744141	1378.877563476562	170.3465576171875	-285.377197265625	1089.541625976562	186.3072967529297	-298.54150390625	1072.792602539062	125.8300628662109	-241.9222869873047	851.207763671875	273.8485107421875	-283.9725646972656	1034.092529296875	198.52880859375	-153.8597564697266	784.8084106445312	301.9837646484375	-226.0060882568359	777.8510131835938	287.0542907714844	-95.80530548095703	1662.472290039062	109.0207977294922	107.0038986206055	1671.988647460938	153.1836090087891	-18.10775947570801	1666.21533203125	225.5254211425781	51.04965972900391	1666.4453125	32.18832397460938	95.07980346679688	925.4590454101562	-96.77133941650391	-192.1586608886719	910.0399780273438	158.9051971435547	-94.12166595458984	947.8779296875	184.7922515869141	109.0071411132812	945.9965209960938	-0.3623379766941071	27.1832218170166	484.4000854492188	-89.47438049316406	69.83676147460938	647.6170043945312	-88.19999694824219	-104.053825378418	34.93005752563477	-214.3653869628906	-50.52445602416992	254.0616607666016	-176.0930480957031	16.10457038879395	38.35325622558594	-30.46492385864258	-61.18901443481445	42.81892013549805	-53.0890007019043	-1.238805174827576	32.96819305419922	-146.4342041015625	-191.1884613037109	44.27274322509766	-219.0967712402344	-47.64014053344727	503.0782470703125	265.4132995605469	-151.3912200927734	772.3978271484375	215.9032897949219	67.60706329345703	38.91337966918945	311.6694946289062	-2.653494119644165	372.0086975097656	294.9882507324219	159.7789306640625	125.0211944580078	489.6890258789062	183.2511291503906	101.8157653808594	421.1222229003906	83.45903015136719	81.06008148193359	433.4220275878906	103.331413269043	21.58750343322754	246.6889495849609	-163.2534332275391	875.4310302734375	269.5521850585938	-150.9346313476562	703.12158203125	278.5802307128906	342.4454345703125	768.8875122070312	44.19243621826172	nan	nan	nan	
254	2.53	-184.9813079833984	977.2073364257812	-9.507646560668945	-83.33222961425781	991.7891235351562	-92.84105682373047	-128.9568634033203	1085.217529296875	-50.22849273681641	32.96365737915039	1268.128051757812	133.2291412353516	-131.5153198242188	1211.634033203125	-54.54928970336914	-100.4884796142578	1484.599731445312	2.332650184631348	21.1032543182373	1379.72119140625	124.5614624023438	-212.5005950927734	1359.623291015625	0.7558746933937073	-54.89749145507812	1435.269897460938	-85.43488311767578	71.90579986572266	1459.074340820312	-64.61546325683594	139.6093902587891	1341.090576171875	-122.4487457275391	222.0081787109375	1135.860107421875	-109.8677673339844	133.8770904541016	1099.304565429688	-144.728271484375	303.5366821289062	931.0242919921875	32.49515533447266	339.7152099609375	903.411865234375	-42.63960266113281	263.3306579589844	1061.967041015625	-83.35233306884766	356.0526123046875	849.0995483398438	-20.43148994445801	351.0751342773438	865.7186279296875	45.40402984619141	-179.8099517822266	1442.93701171875	147.6582794189453	-242.8005523681641	1376.94580078125	175.7545166015625	-281.2785034179688	1087.517578125	191.15576171875	-293.8637084960938	1070.951049804688	130.5345611572266	-239.8023071289062	848.5396728515625	277.8620300292969	-280.2059936523438	1032.03173828125	203.170166015625	-152.3791351318359	781.2586669921875	306.0092468261719	-224.4979248046875	774.9386596679688	290.6589965820312	-91.66937255859375	1660.94921875	115.427978515625	110.8595428466797	1670.465698242188	160.6857604980469	-14.59142971038818	1664.652221679688	232.3572540283203	55.58139801025391	1664.99072265625	39.3812141418457	100.6819229125977	924.2844848632812	-90.26149749755859	-186.8853149414062	908.0389404296875	164.570068359375	-89.35084533691406	945.9657592773438	190.9006958007812	114.3108673095703	944.3571166992188	6.147646903991699	30.15316581726074	483.7217407226562	-86.18801879882812	73.76432800292969	646.6605834960938	-83.70933532714844	-104.1478042602539	35.57439422607422	-214.0569458007812	-49.15202713012695	254.52734375	-174.5443725585938	16.26694679260254	38.25759124755859	-30.47091674804688	-61.04142379760742	42.87601852416992	-53.00948715209961	-1.336911559104919	32.95463180541992	-146.3271179199219	-191.1684875488281	45.6116828918457	-218.8861236572266	-42.28993606567383	501.1355285644531	269.766845703125	-146.7547302246094	769.9201049804688	221.0148162841797	77.04782867431641	39.38501739501953	326.0623474121094	3.13209867477417	371.406494140625	301.6785278320312	165.2851104736328	130.0906219482422	503.9771423339844	190.2137298583984	106.0632247924805	436.113037109375	90.48077392578125	83.9482421875	447.2608947753906	113.8830261230469	21.36553955078125	261.8145141601562	-160.8646240234375	872.1887817382812	274.1840515136719	-149.9775848388672	699.7282104492188	282.0874633789062	349.4990539550781	769.6891479492188	56.28308868408203	nan	nan	nan	
